<svg width="20" height="20" viewBox="0 0 32 32" fill="#68778d" xmlns="http://www.w3.org/2000/svg" aria-hidden="true">
  <path d="M32,13.90697668492794 q0,3.104 -2.144,5.728 t-5.824,4.16 t-8.032,1.536 q-1.248,0 -2.592,-0.128 q-3.52,3.104 -8.224,4.32 q-0.8640000000000017,0.256 -2.016,0.38400000000000095 q-0.32000000000000095,0.03200000000000011 -0.544,-0.16000000000000048 t-0.32000000000000095,-0.512 v-0.03200000000000011 q-0.06400000000000021,-0.06400000000000021 0,-0.19200000000000048 t0.03200000000000011,-0.19200000000000048 t0.06400000000000021,-0.16000000000000048 l0.128,-0.16000000000000048 t0.128,-0.16000000000000048 t0.128,-0.16000000000000048 q0.128,-0.16000000000000048 0.544,-0.6080000000000017 t0.6400000000000019,-0.7040000000000006 t0.544,-0.7040000000000006 t0.5760000000000006,-0.8960000000000019 t0.4800000000000003,-1.056 t0.4800000000000003,-1.344 q-2.816,-1.6 -4.416,-3.936 t-1.6320000000000001,-5.024 q0,-2.3360000000000003 1.28,-4.448 t3.392,-3.648 t5.12,-2.432 t6.208,-0.8960000000000019 q4.352,0 8.032,1.536 t5.824,4.16 t2.144,5.728 z"></path>
</svg>