<svg width="684.000000pt" height="684.000000pt" xmlns="http://www.w3.org/2000/svg" viewBox="0 0 684.000000 684.000000" preserveAspectRatio="xMidYMid meet">
  <g transform="translate(0.000000,684.000000) scale(0.100000,-0.100000)"
  fill="#000000" stroke="none">
    <path d="M0 3420 l0 -3420 3420 0 3420 0 0 3420 0 3420 -3420 0 -3420 0 0
    -3420z m3530 1730 c199 -41 367 -162 453 -328 l38 -73 72 74 c86 88 217 187
    307 232 151 75 299 108 490 107 396 -2 669 -201 760 -552 31 -119 38 -324 16
    -490 -24 -179 -75 -428 -156 -748 -97 -389 -130 -557 -130 -667 0 -158 38
    -192 200 -181 l85 6 104 71 104 71 -6 -43 c-31 -231 -43 -295 -64 -364 -86
    -274 -281 -466 -548 -536 -109 -29 -307 -32 -420 -5 -182 42 -334 151 -422
    302 -63 107 -97 221 -114 386 -21 199 4 360 175 1118 89 393 110 529 103 656
    -8 144 -44 194 -138 194 -129 0 -277 -178 -370 -448 -14 -41 -377 -1727 -466
    -2164 l-5 -28 -564 0 -564 0 5 23 c46 197 498 2358 502 2398 9 89 -4 164 -35
    200 -24 30 -29 31 -78 26 -28 -3 -65 -12 -82 -21 -57 -29 -137 -114 -185 -195
    -101 -170 -110 -205 -355 -1363 l-226 -1068 -564 0 -564 0 5 23 c3 12 164 769
    357 1682 193 913 353 1668 356 1678 5 16 41 17 566 17 l561 0 -7 -37 c-3 -21
    -9 -56 -13 -77 l-6 -39 44 27 c116 72 287 132 424 149 91 12 266 5 355 -13z">
    </path>
  </g>
</svg>